<?xml version="1.0" encoding="utf-8"?>
<!-- Generator: Adobe Illustrator 25.4.1, SVG Export Plug-In . SVG Version: 6.00 Build 0)  -->
<svg version="1.1" id="Ebene_1" xmlns="http://www.w3.org/2000/svg" xmlns:xlink="http://www.w3.org/1999/xlink" x="0px" y="0px"
	 viewBox="0 0 445.8 100" style="enable-background:new 0 0 445.8 100;" xml:space="preserve">
<style type="text/css">
	.st0{fill:#1D343A;}
	.st1{fill:#DDAE97;}
</style>
<path class="st0" d="M0,75V9.3h37.3v6.3H7.4v21.7h25.2v6.2H7.4v25.2h30.9V75H0z"/>
<path class="st0" d="M55.4,16.1c-1.4,0-2.6-0.5-3.6-1.4c-1-0.9-1.4-2.2-1.4-3.7c0-1.5,0.5-2.6,1.4-3.5c1-0.9,2.1-1.4,3.6-1.4
	c1.5,0,2.7,0.4,3.6,1.4c0.9,0.9,1.4,2.1,1.4,3.5c0,1.5-0.5,2.8-1.4,3.7C58.1,15.6,56.9,16.1,55.4,16.1z M51.7,75V26.5h7.2V75H51.7z"
	/>
<path class="st0" d="M75.9,75V26.5h6l0.6,7.2h0.3c2.3-2.4,4.8-4.4,7.4-6c2.6-1.6,5.6-2.4,8.9-2.4c5.1,0,8.9,1.6,11.2,4.8
	c2.4,3.2,3.5,7.9,3.5,14.1V75h-7.3V45.1c0-4.7-0.8-8.1-2.2-10.2c-1.5-2.1-4-3.2-7.4-3.2c-2.5,0-4.8,0.6-6.9,1.9
	c-2.1,1.3-4.4,3.2-7,5.9V75H75.9z"/>
<path class="st0" d="M124.7,32.5V27l6.9-0.5h17.5v6H124.7z M131.3,75V18.1c0-3.3,0.5-6.1,1.5-8.4c1-2.3,2.5-4.1,4.6-5.4
	c2-1.3,4.6-1.9,7.6-1.9c1.4,0,2.8,0.1,4.2,0.5c1.4,0.3,2.6,0.7,3.6,1.1l-1.6,5.6c-0.9-0.5-1.9-0.8-2.8-1c-0.9-0.2-1.9-0.2-2.8-0.2
	c-2.3,0-4.1,0.8-5.2,2.5c-1.2,1.7-1.8,4.1-1.8,7.3V75H131.3z"/>
<path class="st0" d="M167.6,76.2c-2.7,0-5.1-0.5-7.2-1.6c-2.1-1.1-3.8-2.6-5.1-4.6c-1.3-2-1.9-4.5-1.9-7.5c0-5.3,2.4-9.3,7.2-12.1
	c4.8-2.8,12.5-4.8,23-6c0-2.2-0.3-4.3-0.8-6.3c-0.6-2-1.6-3.6-3.1-4.9c-1.5-1.2-3.6-1.9-6.5-1.9c-2.9,0-5.6,0.6-8.1,1.7
	c-2.5,1.1-4.7,2.3-6.5,3.6l-2.9-5c1.4-0.9,3.1-1.9,5-2.9c1.9-1,4.1-1.8,6.4-2.5c2.3-0.7,4.8-1,7.4-1c3.9,0,7.1,0.8,9.5,2.5
	c2.4,1.7,4.2,4,5.2,6.9c1.1,2.9,1.7,6.4,1.7,10.3v30h-6l-0.6-5.9h-0.3c-2.3,1.9-4.9,3.6-7.6,5C173.6,75.5,170.7,76.2,167.6,76.2z
	 M169.5,70.3c2.5,0,4.9-0.6,7-1.8c2.2-1.2,4.5-2.8,7-5V49.3c-5.7,0.7-10.3,1.6-13.6,2.8c-3.3,1.2-5.7,2.6-7.2,4.2
	c-1.5,1.7-2.2,3.6-2.2,5.8c0,2.9,0.9,4.9,2.7,6.2C165,69.6,167.1,70.3,169.5,70.3z"/>
<path class="st0" d="M225.5,76.2c-4.3,0-8.1-1-11.5-3c-3.4-2-6.1-4.9-8.1-8.7c-2-3.8-3-8.3-3-13.8c0-5.4,1.1-10,3.2-13.8
	c2.2-3.8,5-6.7,8.5-8.7c3.5-2,7.3-3,11.4-3c3.2,0,5.9,0.6,8.2,1.8c2.3,1.2,4.2,2.5,5.9,4.1l-3.8,4.8c-1.4-1.3-2.9-2.4-4.5-3.2
	c-1.6-0.8-3.5-1.2-5.5-1.2c-3.1,0-5.8,0.8-8.1,2.5c-2.4,1.6-4.2,3.9-5.6,6.9c-1.4,2.9-2,6.3-2,10.1c0,3.9,0.7,7.2,2,10.2
	c1.3,2.9,3.1,5.1,5.5,6.8c2.3,1.6,5.1,2.4,8.2,2.4c2.3,0,4.5-0.5,6.5-1.5s3.8-2.2,5.3-3.5l3.2,4.9c-2.1,1.9-4.5,3.5-7.2,4.5
	C231.2,75.6,228.4,76.2,225.5,76.2z"/>
<path class="st0" d="M252.1,75V3.6h7.2v19.8l-0.2,10.2c2.3-2.3,4.8-4.3,7.4-5.9c2.6-1.6,5.5-2.4,8.8-2.4c5.1,0,8.9,1.6,11.2,4.8
	c2.4,3.2,3.5,7.9,3.5,14.1V75h-7.3V45.1c0-4.7-0.8-8.1-2.2-10.2c-1.5-2.1-4-3.2-7.4-3.2c-2.5,0-4.8,0.6-6.9,1.9
	c-2.1,1.3-4.4,3.2-7,5.9V75H252.1z"/>
<path class="st1" d="M348.4,76.2c-4.2,0-8-1-11.5-3.1s-6.3-4.9-8.4-8.7c-2.1-3.8-3.1-8.3-3.1-13.7c0-5.3,1-9.8,3.1-13.6
	c2.1-3.8,4.8-6.7,8.1-8.8c3.3-2.1,6.8-3.1,10.6-3.1c4,0,7.4,0.9,10.3,2.8c2.9,1.9,5.1,4.5,6.6,7.9c1.5,3.4,2.2,7.4,2.2,12
	c0,0.8,0,1.6-0.1,2.4c0,0.8-0.1,1.4-0.2,2h-34.8l-0.1-5.3h28.7c0-5.2-1.1-9.1-3.3-11.9c-2.2-2.7-5.3-4-9.2-4c-2.4,0-4.7,0.7-7,2.1
	c-2.3,1.4-4.1,3.5-5.6,6.4c-1.5,2.9-2.2,6.6-2.2,11.1c0,4.3,0.8,7.9,2.3,10.8c1.5,2.9,3.6,5,6.2,6.5c2.6,1.5,5.4,2.2,8.4,2.2
	c2.5,0,4.7-0.4,6.7-1.1c2-0.7,3.8-1.7,5.7-2.8l2.7,4.8c-2.1,1.3-4.4,2.5-6.9,3.5C354.8,75.7,351.8,76.2,348.4,76.2z"/>
<path class="st1" d="M370.7,75l16-25.3l-14.8-23.2h7.9l6.8,11.1c0.8,1.3,1.6,2.7,2.5,4c0.8,1.3,1.7,2.7,2.4,4h0.4
	c0.8-1.3,1.6-2.7,2.3-4c0.7-1.3,1.5-2.7,2.2-4l6.3-11.1h7.6l-14.7,23.9L411.5,75h-7.9l-7.5-11.8c-0.8-1.5-1.7-2.9-2.6-4.4
	c-0.9-1.5-1.8-2.9-2.7-4.3h-0.4c-0.9,1.4-1.7,2.8-2.6,4.3c-0.8,1.5-1.7,2.9-2.5,4.4l-7,11.8H370.7z"/>
<path class="st1" d="M437.1,76.2c-5,0-8.5-1.5-10.5-4.4c-2-2.9-2.9-6.7-2.9-11.4V32.5h-7.3V27l7.6-0.5l0.9-13.7h6.1v13.7h13.3v6H431
	v28.1c0,3,0.6,5.4,1.7,7c1.1,1.7,3.1,2.6,6.1,2.6c0.9,0,1.8-0.1,2.8-0.4c1-0.3,1.9-0.6,2.8-0.9l1.5,5.5c-1.3,0.5-2.8,0.9-4.3,1.2
	C440,76,438.5,76.2,437.1,76.2z"/>
<g>
	<path class="st1" d="M305.6,100L304.4,0h7.4v100H305.6z"/>
	<path class="st1" d="M294.5,1l9.6-1h38v6.3h-47.7L294.5,1z"/>
</g>
</svg>
